<svg xmlns="http://www.w3.org/2000/svg" xmlns:xlink="http://www.w3.org/1999/xlink" width="500" zoomAndPan="magnify" viewBox="0 0 375 374.999991" height="500" preserveAspectRatio="xMidYMid meet" version="1.0"><defs><g/><clipPath id="862d1f4c7b"><path d="M 66 117 L 225 117 L 225 251 L 66 251 Z M 66 117 " clip-rule="nonzero"/></clipPath><clipPath id="499e153194"><path d="M 199.1875 106.199219 L 228.738281 231.769531 L 82.726562 266.128906 L 53.175781 140.558594 Z M 199.1875 106.199219 " clip-rule="nonzero"/></clipPath><clipPath id="d88aae9945"><path d="M 199.1875 106.199219 L 228.738281 231.769531 L 82.726562 266.128906 L 53.175781 140.558594 Z M 199.1875 106.199219 " clip-rule="nonzero"/></clipPath><clipPath id="ab0de2a83c"><path d="M 199.160156 106.207031 L 228.617188 231.394531 L 82.710938 265.726562 L 53.25 140.542969 Z M 199.160156 106.207031 " clip-rule="nonzero"/></clipPath><clipPath id="328983474c"><path d="M 159 115 L 321 115 L 321 261 L 159 261 Z M 159 115 " clip-rule="nonzero"/></clipPath><clipPath id="f7324b6e4e"><path d="M 151.28125 216.875 L 209.308594 101.660156 L 343.277344 169.132812 L 285.25 284.347656 Z M 151.28125 216.875 " clip-rule="nonzero"/></clipPath><clipPath id="2078b47be9"><path d="M 151.28125 216.875 L 209.308594 101.660156 L 343.277344 169.132812 L 285.25 284.347656 Z M 151.28125 216.875 " clip-rule="nonzero"/></clipPath><clipPath id="a701e3130c"><path d="M 151.3125 216.886719 L 209.160156 102.027344 L 343.03125 169.453125 L 285.183594 284.3125 Z M 151.3125 216.886719 " clip-rule="nonzero"/></clipPath><clipPath id="716efa5539"><path d="M 113 36 L 264 36 L 264 197 L 113 197 Z M 113 36 " clip-rule="nonzero"/></clipPath><clipPath id="7df86ad9c2"><path d="M 205.828125 206.382812 L 99.1875 133.796875 L 183.589844 9.792969 L 290.230469 82.378906 Z M 205.828125 206.382812 " clip-rule="nonzero"/></clipPath><clipPath id="61ca902384"><path d="M 205.828125 206.382812 L 99.1875 133.796875 L 183.589844 9.792969 L 290.230469 82.378906 Z M 205.828125 206.382812 " clip-rule="nonzero"/></clipPath><clipPath id="0d5b6aada1"><path d="M 205.84375 206.355469 L 99.53125 133.992188 L 183.871094 10.078125 L 290.1875 82.445312 Z M 205.84375 206.355469 " clip-rule="nonzero"/></clipPath></defs><rect x="-37.5" width="450" fill="#ffffff" y="-37.499999" height="449.999989" fill-opacity="1"/><rect x="-37.5" width="450" fill="#ffffff" y="-37.499999" height="449.999989" fill-opacity="1"/><g clip-path="url(#862d1f4c7b)"><g clip-path="url(#499e153194)"><g clip-path="url(#d88aae9945)"><g clip-path="url(#ab0de2a83c)"><path fill="#f0669c" d="M 157.546875 237.75 C 157.035156 236.34375 157.761719 234.785156 159.167969 234.277344 L 165.253906 232.0625 C 166.660156 231.554688 168.21875 232.28125 168.730469 233.691406 C 168.769531 233.792969 168.796875 233.894531 168.820312 233.996094 C 169.132812 235.316406 168.414062 236.691406 167.109375 237.164062 L 161.023438 239.375 C 159.617188 239.882812 158.058594 239.15625 157.546875 237.75 Z M 144.515625 242.460938 L 138.039062 242.550781 C 136.542969 242.570312 135.3125 241.371094 135.296875 239.875 L 135.296875 239.871094 C 135.273438 238.375 136.472656 237.144531 137.972656 237.128906 L 144.441406 237.039062 C 145.9375 237.019531 147.167969 238.210938 147.191406 239.714844 C 147.207031 241.210938 146.011719 242.441406 144.515625 242.460938 Z M 120.121094 241.011719 L 113.921875 239.144531 C 112.488281 238.714844 111.675781 237.199219 112.109375 235.765625 C 112.398438 234.804688 113.175781 234.121094 114.082031 233.90625 C 114.53125 233.800781 115.011719 233.8125 115.484375 233.953125 L 121.6875 235.820312 C 123.117188 236.253906 123.933594 237.765625 123.496094 239.199219 C 123.203125 240.15625 122.429688 240.839844 121.515625 241.054688 C 121.070312 241.160156 120.589844 241.152344 120.121094 241.011719 Z M 189.085938 223.328125 C 189.839844 224.621094 189.410156 226.277344 188.117188 227.039062 L 182.53125 230.3125 C 181.242188 231.070312 179.578125 230.636719 178.824219 229.34375 C 178.683594 229.105469 178.582031 228.851562 178.523438 228.59375 C 178.257812 227.46875 178.742188 226.25 179.789062 225.632812 L 185.375 222.363281 C 186.667969 221.605469 188.328125 222.035156 189.085938 223.328125 Z M 97.933594 230.859375 L 92.945312 226.734375 C 91.792969 225.78125 91.625 224.070312 92.582031 222.917969 C 93.539062 221.765625 95.246094 221.601562 96.402344 222.554688 L 101.390625 226.675781 C 102.539062 227.628906 102.703125 229.34375 101.75 230.496094 C 100.792969 231.648438 99.085938 231.8125 97.933594 230.859375 Z M 79.832031 205.640625 L 77.46875 195.601562 C 76.921875 193.277344 78.363281 190.949219 80.6875 190.402344 C 83.007812 189.859375 85.332031 191.296875 85.882812 193.621094 L 88.242188 203.664062 C 88.789062 205.988281 87.351562 208.3125 85.03125 208.859375 C 82.703125 209.40625 80.378906 207.96875 79.832031 205.640625 Z M 81.179688 174.457031 C 79.808594 173.847656 79.195312 172.246094 79.800781 170.878906 L 82.425781 164.960938 C 83.03125 163.59375 84.632812 162.976562 86.007812 163.582031 C 87.375 164.191406 87.992188 165.792969 87.386719 167.160156 L 84.757812 173.074219 C 84.152344 174.449219 82.546875 175.058594 81.179688 174.457031 Z M 92.925781 154.242188 C 91.898438 153.152344 91.949219 151.433594 93.042969 150.414062 L 97.757812 145.980469 C 98.847656 144.953125 100.5625 145.003906 101.589844 146.097656 C 101.925781 146.453125 102.148438 146.882812 102.253906 147.332031 C 102.46875 148.242188 102.203125 149.238281 101.476562 149.929688 L 96.753906 154.363281 C 95.667969 155.390625 93.953125 155.335938 92.925781 154.242188 Z M 111.851562 140.226562 C 111.195312 138.878906 111.765625 137.261719 113.113281 136.613281 L 118.945312 133.804688 C 120.296875 133.152344 121.914062 133.722656 122.566406 135.070312 C 123.214844 136.417969 122.648438 138.042969 121.300781 138.6875 L 115.46875 141.496094 C 114.121094 142.148438 112.496094 141.582031 111.851562 140.226562 Z M 135.101562 129.207031 L 141.53125 128.46875 C 143.015625 128.300781 144.363281 129.371094 144.53125 130.855469 C 144.691406 132.234375 143.777344 133.492188 142.460938 133.800781 C 142.355469 133.828125 142.253906 133.847656 142.148438 133.859375 L 135.710938 134.59375 C 134.226562 134.765625 132.882812 133.695312 132.710938 132.207031 C 132.542969 130.71875 133.613281 129.378906 135.101562 129.207031 Z M 158.390625 127.722656 L 164.851562 128.164062 C 166.347656 128.261719 167.472656 129.558594 167.371094 131.050781 C 167.269531 132.546875 165.976562 133.675781 164.480469 133.578125 L 158.023438 133.136719 C 156.527344 133.03125 155.402344 131.738281 155.503906 130.246094 C 155.585938 129.027344 156.464844 128.054688 157.589844 127.789062 C 157.84375 127.726562 158.113281 127.707031 158.390625 127.722656 Z M 178.207031 240.898438 C 188.445312 236.164062 197.714844 230.105469 205.917969 222.585938 C 206.382812 222.15625 206.621094 222.160156 207.074219 222.550781 C 208.535156 223.820312 208.960938 224.320312 210.441406 225.574219 C 211.621094 226.578125 213.472656 226.46875 214.578125 225.328125 L 223.664062 215.933594 C 224.777344 214.785156 224.707031 213.027344 223.515625 212.015625 C 221.960938 210.703125 220.410156 209.386719 218.855469 208.070312 C 213.777344 203.769531 209.753906 200.214844 204.683594 195.902344 C 203.488281 194.882812 201.613281 195.007812 200.511719 196.171875 L 191.546875 205.699219 C 190.453125 206.863281 190.546875 208.628906 191.78125 209.59375 C 191.789062 209.601562 191.796875 209.609375 191.804688 209.613281 C 192.292969 209.992188 192.414062 210.210938 191.800781 210.671875 C 189.269531 212.578125 166.371094 225.578125 152.871094 227.585938 C 145.371094 228.691406 137.949219 228.964844 130.550781 227.640625 C 121.632812 226.046875 113.757812 222.542969 107.261719 216.613281 C 103.570312 213.242188 100.585938 209.378906 98.441406 204.921875 C 97.539062 203.035156 96.679688 201.125 96.121094 199.136719 C 95.886719 198.320312 95.675781 197.492188 95.488281 196.65625 C 95.285156 195.832031 95.105469 195 94.949219 194.160156 C 94.566406 192.132812 94.480469 190.039062 94.445312 187.945312 C 94.378906 183.007812 95.328125 178.210938 97.128906 173.550781 C 100.300781 165.34375 105.785156 158.695312 113.054688 153.292969 C 119.085938 148.8125 125.851562 145.738281 133.058594 143.394531 C 146.039062 139.171875 172.328125 140.597656 175.445312 141.167969 C 176.203125 141.308594 176.191406 141.558594 175.921875 142.117188 C 175.917969 142.128906 175.910156 142.136719 175.910156 142.144531 C 175.234375 143.558594 175.9375 145.183594 177.4375 145.734375 L 189.707031 150.261719 C 191.214844 150.816406 192.945312 150.089844 193.5625 148.648438 C 196.179688 142.527344 198.195312 137.554688 200.824219 131.4375 C 201.628906 129.566406 202.425781 127.695312 203.234375 125.820312 C 203.847656 124.386719 203.128906 122.785156 201.621094 122.25 L 189.296875 117.894531 C 187.800781 117.367188 186.09375 118.09375 185.484375 119.519531 C 184.71875 121.300781 184.5625 121.941406 183.820312 123.726562 C 183.589844 124.28125 183.375 124.386719 182.773438 124.210938 C 172.074219 121.136719 161.078125 119.847656 149.800781 120.175781 C 141 120.429688 132.347656 121.667969 123.84375 124.003906 C 109.996094 127.816406 97.585938 134.132812 87.195312 143.824219 C 77.894531 152.503906 71.492188 162.734375 68.320312 174.632812 C 66.566406 181.207031 65.996094 187.851562 66.617188 194.554688 C 66.886719 197.496094 67.339844 200.351562 67.980469 203.132812 C 68.648438 205.90625 69.515625 208.667969 70.582031 211.417969 C 73.019531 217.695312 76.492188 223.386719 80.996094 228.492188 C 89.140625 237.730469 99.429688 244.035156 111.625 247.648438 C 125.25 251.695312 139.175781 251.808594 153.265625 249.046875 C 161.917969 247.347656 170.214844 244.589844 178.207031 240.898438 " fill-opacity="1" fill-rule="nonzero"/></g></g></g></g><g clip-path="url(#328983474c)"><g clip-path="url(#f7324b6e4e)"><g clip-path="url(#2078b47be9)"><g clip-path="url(#a701e3130c)"><path fill="#0a92d0" d="M 267.707031 142.8125 C 267.195312 144.222656 265.640625 144.949219 264.234375 144.433594 L 258.148438 142.21875 C 256.742188 141.710938 256.015625 140.148438 256.53125 138.738281 C 256.566406 138.636719 256.609375 138.542969 256.65625 138.449219 C 257.265625 137.238281 258.699219 136.644531 260.003906 137.121094 L 266.085938 139.335938 C 267.492188 139.847656 268.21875 141.40625 267.707031 142.8125 Z M 280.71875 147.578125 L 285.738281 151.667969 C 286.898438 152.613281 287.070312 154.320312 286.121094 155.480469 L 286.121094 155.484375 C 285.175781 156.644531 283.464844 156.816406 282.308594 155.867188 L 277.292969 151.777344 C 276.132812 150.832031 275.957031 149.128906 276.90625 147.960938 C 277.851562 146.804688 279.558594 146.628906 280.71875 147.578125 Z M 298.484375 164.359375 L 302.035156 169.769531 C 302.855469 171.023438 302.507812 172.703125 301.253906 173.527344 C 300.414062 174.078125 299.382812 174.101562 298.546875 173.679688 C 298.132812 173.472656 297.773438 173.15625 297.503906 172.746094 L 293.949219 167.332031 C 293.128906 166.082031 293.476562 164.398438 294.730469 163.578125 C 295.574219 163.03125 296.605469 163.007812 297.441406 163.429688 C 297.851562 163.632812 298.214844 163.949219 298.484375 164.359375 Z M 234.273438 133.605469 C 234.523438 132.128906 235.917969 131.136719 237.398438 131.382812 L 243.78125 132.460938 C 245.257812 132.710938 246.253906 134.109375 246.003906 135.585938 C 245.953125 135.859375 245.871094 136.117188 245.75 136.355469 C 245.230469 137.386719 244.078125 138.011719 242.875 137.8125 L 236.496094 136.730469 C 235.019531 136.480469 234.023438 135.082031 234.273438 133.605469 Z M 308.964844 186.394531 L 310.140625 192.757812 C 310.40625 194.226562 309.4375 195.648438 307.960938 195.914062 C 306.488281 196.1875 305.074219 195.214844 304.804688 193.742188 L 303.628906 187.378906 C 303.359375 185.90625 304.335938 184.488281 305.804688 184.21875 C 307.28125 183.949219 308.695312 184.921875 308.964844 186.394531 Z M 306.636719 217.347656 L 301.996094 226.558594 C 300.921875 228.691406 298.324219 229.550781 296.191406 228.476562 C 294.0625 227.402344 293.203125 224.804688 294.277344 222.671875 L 298.917969 213.460938 C 299.992188 211.328125 302.589844 210.46875 304.71875 211.542969 C 306.855469 212.617188 307.710938 215.214844 306.636719 217.347656 Z M 285.566406 240.378906 C 286.230469 241.726562 285.667969 243.347656 284.328125 244.007812 L 278.511719 246.855469 C 277.171875 247.515625 275.546875 246.957031 274.886719 245.613281 C 274.226562 244.265625 274.785156 242.640625 276.125 241.984375 L 281.9375 239.136719 C 283.285156 238.476562 284.90625 239.039062 285.566406 240.378906 Z M 263.582031 248.324219 C 263.667969 249.816406 262.523438 251.101562 261.03125 251.183594 L 254.566406 251.550781 C 253.074219 251.640625 251.792969 250.496094 251.710938 249 C 251.679688 248.507812 251.785156 248.042969 251.992188 247.628906 C 252.414062 246.792969 253.257812 246.199219 254.257812 246.136719 L 260.722656 245.769531 C 262.21875 245.683594 263.496094 246.828125 263.582031 248.324219 Z M 240.074219 246.90625 C 239.710938 248.359375 238.234375 249.238281 236.785156 248.863281 L 230.507812 247.269531 C 229.058594 246.902344 228.179688 245.425781 228.550781 243.976562 C 228.917969 242.523438 230.394531 241.644531 231.84375 242.015625 L 238.117188 243.613281 C 239.570312 243.976562 240.449219 245.453125 240.074219 246.90625 Z M 215.175781 240.414062 L 209.773438 236.847656 C 208.527344 236.027344 208.183594 234.339844 209.007812 233.09375 C 209.773438 231.933594 211.28125 231.558594 212.488281 232.164062 C 212.585938 232.214844 212.675781 232.265625 212.765625 232.324219 L 218.167969 235.894531 C 219.417969 236.71875 219.761719 238.402344 218.933594 239.652344 C 218.109375 240.898438 216.425781 241.238281 215.175781 240.414062 Z M 196.375 226.589844 L 191.707031 222.101562 C 190.625 221.066406 190.59375 219.347656 191.628906 218.269531 C 192.671875 217.191406 194.386719 217.15625 195.46875 218.191406 L 200.132812 222.679688 C 201.210938 223.71875 201.246094 225.433594 200.210938 226.511719 C 199.363281 227.390625 198.066406 227.574219 197.03125 227.054688 C 196.796875 226.9375 196.574219 226.78125 196.375 226.589844 Z M 253.898438 127.128906 C 243.007812 124.179688 232.015625 122.867188 220.894531 123.359375 C 220.265625 123.390625 220.082031 123.234375 219.988281 122.644531 C 219.683594 120.734375 219.675781 120.078125 219.351562 118.167969 C 219.089844 116.636719 217.601562 115.53125 216.023438 115.695312 L 203.023438 117.058594 C 201.433594 117.222656 200.359375 118.613281 200.621094 120.15625 C 200.96875 122.160156 201.3125 124.167969 201.65625 126.171875 C 202.785156 132.734375 203.582031 138.039062 204.699219 144.601562 C 204.960938 146.152344 206.476562 147.261719 208.070312 147.074219 L 221.058594 145.53125 C 222.648438 145.347656 223.710938 143.929688 223.382812 142.398438 C 223.382812 142.386719 223.382812 142.378906 223.378906 142.367188 C 223.246094 141.765625 223.292969 141.519531 224.0625 141.558594 C 227.226562 141.726562 253.125 146.472656 264.761719 153.609375 C 271.21875 157.578125 277.082031 162.136719 281.898438 167.90625 C 287.710938 174.855469 291.496094 182.597656 292.664062 191.316406 C 293.328125 196.269531 293.132812 201.152344 291.914062 205.941406 C 291.394531 207.96875 290.820312 209.984375 289.976562 211.867188 C 289.628906 212.644531 289.257812 213.414062 288.867188 214.171875 C 288.492188 214.9375 288.09375 215.691406 287.675781 216.433594 C 286.667969 218.234375 285.386719 219.894531 284.066406 221.519531 C 280.945312 225.347656 277.140625 228.414062 272.765625 230.824219 C 265.0625 235.078125 256.585938 236.648438 247.542969 236.121094 C 240.042969 235.679688 232.886719 233.6875 225.855469 230.855469 C 213.195312 225.753906 193.964844 207.769531 191.941406 205.332031 C 191.453125 204.734375 191.625 204.550781 192.1875 204.296875 C 192.199219 204.292969 192.207031 204.289062 192.214844 204.285156 C 193.640625 203.636719 194.144531 201.9375 193.347656 200.554688 L 186.855469 189.199219 C 186.054688 187.804688 184.261719 187.25 182.863281 187.957031 C 176.925781 190.96875 172.1875 193.484375 166.242188 196.484375 C 164.425781 197.402344 162.609375 198.320312 160.789062 199.238281 C 159.398438 199.945312 158.921875 201.632812 159.730469 203.015625 L 166.378906 214.265625 C 167.183594 215.632812 168.957031 216.171875 170.34375 215.46875 C 172.070312 214.597656 172.605469 214.207031 174.320312 213.316406 C 174.851562 213.039062 175.085938 213.09375 175.433594 213.617188 C 181.660156 222.847656 189.257812 230.898438 198.109375 237.894531 C 205.019531 243.351562 212.445312 247.964844 220.464844 251.636719 C 233.519531 257.609375 247.089844 260.742188 261.28125 259.988281 C 273.984375 259.316406 285.460938 255.585938 295.535156 248.507812 C 301.105469 244.59375 305.808594 239.867188 309.640625 234.332031 C 311.324219 231.90625 312.8125 229.425781 314.105469 226.886719 C 315.375 224.328125 316.488281 221.65625 317.433594 218.859375 C 319.597656 212.484375 320.597656 205.890625 320.421875 199.089844 C 320.117188 186.777344 316.28125 175.335938 309.257812 164.730469 C 301.417969 152.875 290.820312 143.84375 278.246094 136.90625 C 270.523438 132.652344 262.394531 129.433594 253.898438 127.128906 " fill-opacity="1" fill-rule="nonzero"/></g></g></g></g><g clip-path="url(#716efa5539)"><g clip-path="url(#7df86ad9c2)"><g clip-path="url(#61ca902384)"><g clip-path="url(#0d5b6aada1)"><path fill="#faa81c" d="M 147.617188 81.277344 C 148.945312 81.96875 149.464844 83.605469 148.773438 84.933594 L 145.78125 90.679688 C 145.089844 92.003906 143.449219 92.519531 142.117188 91.828125 C 142.019531 91.777344 141.933594 91.722656 141.847656 91.664062 C 140.726562 90.902344 140.324219 89.402344 140.96875 88.171875 L 143.957031 82.429688 C 144.648438 81.101562 146.292969 80.585938 147.617188 81.277344 Z M 154.042969 69 L 158.753906 64.558594 C 159.84375 63.53125 161.558594 63.582031 162.582031 64.675781 L 162.585938 64.675781 C 163.613281 65.765625 163.5625 67.484375 162.46875 68.507812 L 157.757812 72.945312 C 156.667969 73.972656 154.957031 73.921875 153.925781 72.828125 C 152.902344 71.742188 152.953125 70.023438 154.042969 69 Z M 173 53.582031 L 178.832031 50.765625 C 180.179688 50.117188 181.800781 50.683594 182.453125 52.03125 C 182.886719 52.933594 182.777344 53.964844 182.25 54.734375 C 181.992188 55.117188 181.628906 55.433594 181.191406 55.648438 L 175.355469 58.464844 C 174.007812 59.113281 172.386719 58.550781 171.734375 57.199219 C 171.304688 56.292969 171.414062 55.265625 171.941406 54.492188 C 172.199219 54.113281 172.558594 53.792969 173 53.582031 Z M 134.117188 113.222656 C 132.6875 112.78125 131.886719 111.265625 132.324219 109.832031 L 134.230469 103.644531 C 134.667969 102.214844 136.1875 101.410156 137.617188 101.851562 C 137.882812 101.933594 138.125 102.050781 138.347656 102.203125 C 139.300781 102.851562 139.769531 104.078125 139.414062 105.242188 L 137.507812 111.425781 C 137.066406 112.855469 135.550781 113.660156 134.117188 113.222656 Z M 196.214844 46.070312 L 202.679688 45.738281 C 204.171875 45.660156 205.453125 46.8125 205.523438 48.308594 C 205.601562 49.800781 204.453125 51.078125 202.957031 51.15625 L 196.496094 51.488281 C 195 51.5625 193.722656 50.410156 193.648438 48.917969 C 193.574219 47.417969 194.722656 46.144531 196.214844 46.070312 Z M 226.601562 52.421875 L 235.125 58.226562 C 237.101562 59.570312 237.613281 62.257812 236.269531 64.230469 C 234.925781 66.203125 232.238281 66.714844 230.265625 65.371094 L 221.738281 59.566406 C 219.761719 58.222656 219.253906 55.535156 220.59375 53.5625 C 221.9375 51.589844 224.625 51.078125 226.601562 52.421875 Z M 246.683594 76.320312 C 248.101562 75.839844 249.636719 76.609375 250.117188 78.027344 L 252.179688 84.164062 C 252.660156 85.578125 251.894531 87.117188 250.472656 87.597656 C 249.054688 88.070312 247.515625 87.308594 247.039062 85.890625 L 244.976562 79.757812 C 244.496094 78.335938 245.265625 76.800781 246.683594 76.320312 Z M 251.683594 99.15625 C 253.175781 99.265625 254.300781 100.566406 254.1875 102.058594 L 253.707031 108.515625 C 253.597656 110.007812 252.296875 111.125 250.804688 111.015625 C 250.3125 110.980469 249.863281 110.816406 249.480469 110.554688 C 248.707031 110.027344 248.230469 109.113281 248.296875 108.113281 L 248.78125 101.65625 C 248.886719 100.164062 250.191406 99.046875 251.683594 99.15625 Z M 247.207031 122.277344 C 248.601562 122.828125 249.277344 124.40625 248.71875 125.792969 L 246.316406 131.808594 C 245.761719 133.199219 244.1875 133.875 242.796875 133.320312 C 241.40625 132.765625 240.726562 131.183594 241.285156 129.796875 L 243.683594 123.789062 C 244.238281 122.394531 245.816406 121.714844 247.207031 122.277344 Z M 237.515625 146.113281 L 233.273438 151 C 232.296875 152.128906 230.582031 152.25 229.449219 151.269531 C 228.402344 150.363281 228.226562 148.816406 228.988281 147.699219 C 229.046875 147.609375 229.109375 147.523438 229.179688 147.445312 L 233.425781 142.554688 C 234.40625 141.425781 236.121094 141.304688 237.25 142.285156 C 238.382812 143.265625 238.5 144.984375 237.515625 146.113281 Z M 221.355469 162.945312 L 216.292969 166.988281 C 215.125 167.925781 213.417969 167.730469 212.484375 166.5625 C 211.550781 165.390625 211.738281 163.683594 212.910156 162.746094 L 217.964844 158.710938 C 219.140625 157.773438 220.84375 157.96875 221.777344 159.132812 C 222.539062 160.089844 222.550781 161.398438 221.902344 162.355469 C 221.753906 162.570312 221.570312 162.773438 221.355469 162.945312 Z M 130.261719 92.917969 C 125.914062 103.328125 123.179688 114.054688 122.214844 125.144531 C 122.160156 125.773438 121.980469 125.933594 121.386719 125.949219 C 119.449219 126 118.800781 125.921875 116.863281 126 C 115.3125 126.054688 114.019531 127.390625 113.980469 128.972656 L 113.628906 142.039062 C 113.585938 143.636719 114.824219 144.886719 116.386719 144.828125 C 118.417969 144.742188 120.453125 144.667969 122.488281 144.585938 C 129.140625 144.324219 134.507812 144.226562 141.15625 143.976562 C 142.726562 143.921875 144.023438 142.5625 144.046875 140.957031 L 144.214844 127.878906 C 144.238281 126.28125 142.976562 125.042969 141.414062 125.167969 C 141.402344 125.164062 141.394531 125.164062 141.382812 125.167969 C 140.765625 125.21875 140.53125 125.140625 140.671875 124.382812 C 141.25 121.269531 149.339844 96.214844 157.933594 85.609375 C 162.714844 79.726562 168.003906 74.507812 174.351562 70.484375 C 182 65.632812 190.171875 62.894531 198.964844 62.871094 C 203.964844 62.863281 208.777344 63.691406 213.367188 65.527344 C 215.308594 66.308594 217.234375 67.140625 218.988281 68.222656 C 219.714844 68.667969 220.429688 69.136719 221.132812 69.625 C 221.839844 70.097656 222.535156 70.589844 223.21875 71.101562 C 224.871094 72.335938 226.347656 73.824219 227.785156 75.34375 C 231.175781 78.9375 233.714844 83.113281 235.535156 87.765625 C 238.746094 95.957031 239.195312 104.566406 237.488281 113.460938 C 236.074219 120.839844 233.160156 127.675781 229.433594 134.273438 C 222.722656 146.160156 202.378906 162.878906 199.699219 164.5625 C 199.042969 164.96875 198.882812 164.777344 198.703125 164.183594 C 198.699219 164.171875 198.699219 164.164062 198.695312 164.15625 C 198.238281 162.65625 196.621094 161.9375 195.144531 162.542969 L 183.039062 167.496094 C 181.554688 168.109375 180.765625 169.8125 181.285156 171.292969 C 183.496094 177.570312 185.371094 182.601562 187.566406 188.882812 C 188.238281 190.804688 188.914062 192.726562 189.585938 194.652344 C 190.101562 196.125 191.714844 196.816406 193.191406 196.195312 L 205.214844 191.074219 C 206.675781 190.457031 207.441406 188.765625 206.925781 187.300781 C 206.289062 185.472656 205.972656 184.894531 205.3125 183.078125 C 205.105469 182.515625 205.191406 182.289062 205.757812 182.011719 C 215.71875 177.046875 224.695312 170.5625 232.789062 162.703125 C 239.101562 156.566406 244.644531 149.808594 249.332031 142.339844 C 256.960938 130.171875 261.839844 117.128906 262.949219 102.960938 C 263.941406 90.28125 261.742188 78.414062 256.039062 67.5 C 252.890625 61.46875 248.820312 56.1875 243.832031 51.664062 C 241.648438 49.679688 239.378906 47.878906 237.03125 46.265625 C 234.664062 44.671875 232.160156 43.21875 229.511719 41.914062 C 223.476562 38.933594 217.066406 37.085938 210.300781 36.367188 C 198.050781 35.0625 186.207031 37.371094 174.777344 42.945312 C 162 49.171875 151.660156 58.496094 143.140625 70.058594 C 137.910156 77.160156 133.65625 84.796875 130.261719 92.917969 " fill-opacity="1" fill-rule="nonzero"/></g></g></g></g><g fill="#00003a" fill-opacity="1"><g transform="translate(74.765624, 307.581455)"><g><path d="M 15.65625 -16.5 C 15.507812 -16.644531 15.238281 -16.84375 14.84375 -17.09375 C 14.457031 -17.351562 13.984375 -17.597656 13.421875 -17.828125 C 12.867188 -18.054688 12.265625 -18.257812 11.609375 -18.4375 C 10.960938 -18.625 10.304688 -18.71875 9.640625 -18.71875 C 8.460938 -18.71875 7.570312 -18.492188 6.96875 -18.046875 C 6.375 -17.609375 6.078125 -16.988281 6.078125 -16.1875 C 6.078125 -15.582031 6.265625 -15.097656 6.640625 -14.734375 C 7.023438 -14.378906 7.59375 -14.078125 8.34375 -13.828125 C 9.101562 -13.578125 10.050781 -13.304688 11.1875 -13.015625 C 12.65625 -12.648438 13.925781 -12.210938 15 -11.703125 C 16.082031 -11.191406 16.910156 -10.519531 17.484375 -9.6875 C 18.066406 -8.851562 18.359375 -7.753906 18.359375 -6.390625 C 18.359375 -5.191406 18.140625 -4.164062 17.703125 -3.3125 C 17.265625 -2.46875 16.65625 -1.78125 15.875 -1.25 C 15.09375 -0.726562 14.207031 -0.347656 13.21875 -0.109375 C 12.238281 0.128906 11.191406 0.25 10.078125 0.25 C 8.960938 0.25 7.847656 0.132812 6.734375 -0.09375 C 5.628906 -0.320312 4.5625 -0.648438 3.53125 -1.078125 C 2.5 -1.515625 1.550781 -2.035156 0.6875 -2.640625 L 2.609375 -6.390625 C 2.796875 -6.203125 3.128906 -5.957031 3.609375 -5.65625 C 4.097656 -5.351562 4.6875 -5.046875 5.375 -4.734375 C 6.070312 -4.429688 6.832031 -4.175781 7.65625 -3.96875 C 8.476562 -3.757812 9.304688 -3.65625 10.140625 -3.65625 C 11.316406 -3.65625 12.207031 -3.851562 12.8125 -4.25 C 13.425781 -4.644531 13.734375 -5.210938 13.734375 -5.953125 C 13.734375 -6.628906 13.488281 -7.15625 13 -7.53125 C 12.519531 -7.90625 11.847656 -8.234375 10.984375 -8.515625 C 10.128906 -8.804688 9.113281 -9.117188 7.9375 -9.453125 C 6.53125 -9.847656 5.351562 -10.289062 4.40625 -10.78125 C 3.46875 -11.28125 2.765625 -11.90625 2.296875 -12.65625 C 1.835938 -13.414062 1.609375 -14.363281 1.609375 -15.5 C 1.609375 -17.03125 1.96875 -18.316406 2.6875 -19.359375 C 3.414062 -20.398438 4.398438 -21.1875 5.640625 -21.71875 C 6.878906 -22.25 8.253906 -22.515625 9.765625 -22.515625 C 10.816406 -22.515625 11.804688 -22.398438 12.734375 -22.171875 C 13.671875 -21.941406 14.546875 -21.640625 15.359375 -21.265625 C 16.179688 -20.890625 16.921875 -20.476562 17.578125 -20.03125 Z M 15.65625 -16.5 "/></g></g></g><g fill="#00003a" fill-opacity="1"><g transform="translate(94.075147, 307.581455)"><g><path d="M 11.8125 0.15625 C 10.03125 0.15625 8.515625 -0.140625 7.265625 -0.734375 C 6.015625 -1.335938 5.003906 -2.160156 4.234375 -3.203125 C 3.472656 -4.253906 2.910156 -5.445312 2.546875 -6.78125 C 2.191406 -8.113281 2.015625 -9.507812 2.015625 -10.96875 L 2.015625 -22.359375 L 6.359375 -22.359375 L 6.359375 -10.96875 C 6.359375 -10.039062 6.445312 -9.140625 6.625 -8.265625 C 6.8125 -7.398438 7.113281 -6.617188 7.53125 -5.921875 C 7.945312 -5.222656 8.5 -4.675781 9.1875 -4.28125 C 9.882812 -3.882812 10.75 -3.6875 11.78125 -3.6875 C 12.832031 -3.6875 13.707031 -3.890625 14.40625 -4.296875 C 15.113281 -4.703125 15.671875 -5.253906 16.078125 -5.953125 C 16.484375 -6.648438 16.78125 -7.429688 16.96875 -8.296875 C 17.164062 -9.171875 17.265625 -10.0625 17.265625 -10.96875 L 17.265625 -22.359375 L 21.578125 -22.359375 L 21.578125 -10.96875 C 21.578125 -9.425781 21.390625 -7.984375 21.015625 -6.640625 C 20.648438 -5.296875 20.070312 -4.113281 19.28125 -3.09375 C 18.5 -2.082031 17.488281 -1.285156 16.25 -0.703125 C 15.007812 -0.128906 13.53125 0.15625 11.8125 0.15625 Z M 11.8125 0.15625 "/></g></g></g><g fill="#00003a" fill-opacity="1"><g transform="translate(117.70018, 307.581455)"><g><path d="M 15.65625 -16.5 C 15.507812 -16.644531 15.238281 -16.84375 14.84375 -17.09375 C 14.457031 -17.351562 13.984375 -17.597656 13.421875 -17.828125 C 12.867188 -18.054688 12.265625 -18.257812 11.609375 -18.4375 C 10.960938 -18.625 10.304688 -18.71875 9.640625 -18.71875 C 8.460938 -18.71875 7.570312 -18.492188 6.96875 -18.046875 C 6.375 -17.609375 6.078125 -16.988281 6.078125 -16.1875 C 6.078125 -15.582031 6.265625 -15.097656 6.640625 -14.734375 C 7.023438 -14.378906 7.59375 -14.078125 8.34375 -13.828125 C 9.101562 -13.578125 10.050781 -13.304688 11.1875 -13.015625 C 12.65625 -12.648438 13.925781 -12.210938 15 -11.703125 C 16.082031 -11.191406 16.910156 -10.519531 17.484375 -9.6875 C 18.066406 -8.851562 18.359375 -7.753906 18.359375 -6.390625 C 18.359375 -5.191406 18.140625 -4.164062 17.703125 -3.3125 C 17.265625 -2.46875 16.65625 -1.78125 15.875 -1.25 C 15.09375 -0.726562 14.207031 -0.347656 13.21875 -0.109375 C 12.238281 0.128906 11.191406 0.25 10.078125 0.25 C 8.960938 0.25 7.847656 0.132812 6.734375 -0.09375 C 5.628906 -0.320312 4.5625 -0.648438 3.53125 -1.078125 C 2.5 -1.515625 1.550781 -2.035156 0.6875 -2.640625 L 2.609375 -6.390625 C 2.796875 -6.203125 3.128906 -5.957031 3.609375 -5.65625 C 4.097656 -5.351562 4.6875 -5.046875 5.375 -4.734375 C 6.070312 -4.429688 6.832031 -4.175781 7.65625 -3.96875 C 8.476562 -3.757812 9.304688 -3.65625 10.140625 -3.65625 C 11.316406 -3.65625 12.207031 -3.851562 12.8125 -4.25 C 13.425781 -4.644531 13.734375 -5.210938 13.734375 -5.953125 C 13.734375 -6.628906 13.488281 -7.15625 13 -7.53125 C 12.519531 -7.90625 11.847656 -8.234375 10.984375 -8.515625 C 10.128906 -8.804688 9.113281 -9.117188 7.9375 -9.453125 C 6.53125 -9.847656 5.351562 -10.289062 4.40625 -10.78125 C 3.46875 -11.28125 2.765625 -11.90625 2.296875 -12.65625 C 1.835938 -13.414062 1.609375 -14.363281 1.609375 -15.5 C 1.609375 -17.03125 1.96875 -18.316406 2.6875 -19.359375 C 3.414062 -20.398438 4.398438 -21.1875 5.640625 -21.71875 C 6.878906 -22.25 8.253906 -22.515625 9.765625 -22.515625 C 10.816406 -22.515625 11.804688 -22.398438 12.734375 -22.171875 C 13.671875 -21.941406 14.546875 -21.640625 15.359375 -21.265625 C 16.179688 -20.890625 16.921875 -20.476562 17.578125 -20.03125 Z M 15.65625 -16.5 "/></g></g></g><g fill="#00003a" fill-opacity="1"><g transform="translate(137.009704, 307.581455)"><g><path d="M 19.0625 -18.546875 L 11.90625 -18.546875 L 11.90625 0 L 7.59375 0 L 7.59375 -18.546875 L 0.4375 -18.546875 L 0.4375 -22.359375 L 19.0625 -22.359375 Z M 19.0625 -18.546875 "/></g></g></g><g fill="#00003a" fill-opacity="1"><g transform="translate(156.508226, 307.581455)"><g><path d="M 8.40625 -22.359375 L 12.828125 -22.359375 L 21.046875 0 L 16.5625 0 L 14.484375 -5.578125 L 6.671875 -5.578125 L 4.625 0 L 0.15625 0 Z M 13.703125 -8.625 L 10.609375 -17.859375 L 7.40625 -8.625 Z M 13.703125 -8.625 "/></g></g></g><g fill="#00003a" fill-opacity="1"><g transform="translate(177.676259, 307.581455)"><g><path d="M 2.328125 0 L 2.328125 -22.359375 L 6.671875 -22.359375 L 6.671875 0 Z M 2.328125 0 "/></g></g></g><g fill="#00003a" fill-opacity="1"><g transform="translate(186.685265, 307.581455)"><g><path d="M 6.671875 -14.359375 L 6.671875 0 L 2.328125 0 L 2.328125 -22.359375 L 5.796875 -22.359375 L 17.359375 -7.625 L 17.359375 -22.328125 L 21.703125 -22.328125 L 21.703125 0 L 18.078125 0 Z M 6.671875 -14.359375 "/></g></g></g><g fill="#00003a" fill-opacity="1"><g transform="translate(210.71979, 307.581455)"><g><path d="M 8.40625 -22.359375 L 12.828125 -22.359375 L 21.046875 0 L 16.5625 0 L 14.484375 -5.578125 L 6.671875 -5.578125 L 4.625 0 L 0.15625 0 Z M 13.703125 -8.625 L 10.609375 -17.859375 L 7.40625 -8.625 Z M 13.703125 -8.625 "/></g></g></g><g fill="#00003a" fill-opacity="1"><g transform="translate(231.887822, 307.581455)"><g><path d="M 20.34375 -5.765625 C 20.34375 -4.503906 20.015625 -3.445312 19.359375 -2.59375 C 18.710938 -1.75 17.835938 -1.101562 16.734375 -0.65625 C 15.640625 -0.21875 14.441406 0 13.140625 0 L 2.328125 0 L 2.328125 -22.359375 L 14.296875 -22.359375 C 15.347656 -22.359375 16.253906 -22.082031 17.015625 -21.53125 C 17.785156 -20.976562 18.375 -20.265625 18.78125 -19.390625 C 19.195312 -18.515625 19.40625 -17.601562 19.40625 -16.65625 C 19.40625 -15.59375 19.128906 -14.578125 18.578125 -13.609375 C 18.035156 -12.640625 17.238281 -11.925781 16.1875 -11.46875 C 17.46875 -11.09375 18.476562 -10.410156 19.21875 -9.421875 C 19.96875 -8.429688 20.34375 -7.210938 20.34375 -5.765625 Z M 15.96875 -6.578125 C 15.96875 -7.148438 15.851562 -7.660156 15.625 -8.109375 C 15.394531 -8.554688 15.082031 -8.910156 14.6875 -9.171875 C 14.300781 -9.441406 13.859375 -9.578125 13.359375 -9.578125 L 6.671875 -9.578125 L 6.671875 -3.6875 L 13.140625 -3.6875 C 13.660156 -3.6875 14.132812 -3.816406 14.5625 -4.078125 C 15 -4.335938 15.34375 -4.6875 15.59375 -5.125 C 15.84375 -5.570312 15.96875 -6.054688 15.96875 -6.578125 Z M 6.671875 -18.640625 L 6.671875 -13.015625 L 12.46875 -13.015625 C 12.957031 -13.015625 13.398438 -13.128906 13.796875 -13.359375 C 14.191406 -13.585938 14.507812 -13.910156 14.75 -14.328125 C 15 -14.753906 15.125 -15.257812 15.125 -15.84375 C 15.125 -16.40625 15.007812 -16.894531 14.78125 -17.3125 C 14.5625 -17.738281 14.269531 -18.066406 13.90625 -18.296875 C 13.539062 -18.523438 13.125 -18.640625 12.65625 -18.640625 Z M 6.671875 -18.640625 "/></g></g></g><g fill="#00003a" fill-opacity="1"><g transform="translate(253.307853, 307.581455)"><g><path d="M 2.328125 0 L 2.328125 -22.359375 L 6.671875 -22.359375 L 6.671875 -3.8125 L 18.078125 -3.8125 L 18.078125 0 Z M 2.328125 0 "/></g></g></g><g fill="#00003a" fill-opacity="1"><g transform="translate(271.703875, 307.581455)"><g><path d="M 17.859375 -3.8125 L 17.859375 0 L 2.328125 0 L 2.328125 -22.359375 L 17.578125 -22.359375 L 17.578125 -18.546875 L 6.671875 -18.546875 L 6.671875 -13.171875 L 16.09375 -13.171875 L 16.09375 -9.640625 L 6.671875 -9.640625 L 6.671875 -3.8125 Z M 17.859375 -3.8125 "/></g></g></g><g fill="#00003a" fill-opacity="1"><g transform="translate(290.636707, 307.581455)"><g/></g></g><g fill="#00003a" fill-opacity="1"><g transform="translate(51.539063, 351.081452)"><g><path d="M 17.859375 -3.8125 L 17.859375 0 L 2.328125 0 L 2.328125 -22.359375 L 17.578125 -22.359375 L 17.578125 -18.546875 L 6.671875 -18.546875 L 6.671875 -13.171875 L 16.09375 -13.171875 L 16.09375 -9.640625 L 6.671875 -9.640625 L 6.671875 -3.8125 Z M 17.859375 -3.8125 "/></g></g></g><g fill="#00003a" fill-opacity="1"><g transform="translate(70.470588, 351.081452)"><g><path d="M 11.875 0.15625 C 10.238281 0.15625 8.753906 -0.160156 7.421875 -0.796875 C 6.085938 -1.441406 4.941406 -2.300781 3.984375 -3.375 C 3.023438 -4.445312 2.28125 -5.660156 1.75 -7.015625 C 1.226562 -8.367188 0.96875 -9.757812 0.96875 -11.1875 C 0.96875 -12.675781 1.242188 -14.097656 1.796875 -15.453125 C 2.359375 -16.804688 3.128906 -18.015625 4.109375 -19.078125 C 5.085938 -20.140625 6.242188 -20.976562 7.578125 -21.59375 C 8.910156 -22.207031 10.375 -22.515625 11.96875 -22.515625 C 13.582031 -22.515625 15.054688 -22.1875 16.390625 -21.53125 C 17.722656 -20.882812 18.863281 -20.015625 19.8125 -18.921875 C 20.757812 -17.835938 21.492188 -16.625 22.015625 -15.28125 C 22.546875 -13.9375 22.8125 -12.550781 22.8125 -11.125 C 22.8125 -9.65625 22.535156 -8.238281 21.984375 -6.875 C 21.441406 -5.519531 20.679688 -4.3125 19.703125 -3.25 C 18.722656 -2.195312 17.566406 -1.363281 16.234375 -0.75 C 14.898438 -0.144531 13.445312 0.15625 11.875 0.15625 Z M 11.90625 -3.6875 C 12.957031 -3.6875 13.890625 -3.898438 14.703125 -4.328125 C 15.523438 -4.765625 16.207031 -5.34375 16.75 -6.0625 C 17.300781 -6.789062 17.71875 -7.597656 18 -8.484375 C 18.28125 -9.378906 18.421875 -10.28125 18.421875 -11.1875 C 18.421875 -12.144531 18.269531 -13.078125 17.96875 -13.984375 C 17.664062 -14.890625 17.234375 -15.6875 16.671875 -16.375 C 16.117188 -17.070312 15.4375 -17.628906 14.625 -18.046875 C 13.820312 -18.460938 12.914062 -18.671875 11.90625 -18.671875 C 10.832031 -18.671875 9.890625 -18.457031 9.078125 -18.03125 C 8.273438 -17.601562 7.597656 -17.023438 7.046875 -16.296875 C 6.503906 -15.578125 6.09375 -14.773438 5.8125 -13.890625 C 5.53125 -13.003906 5.390625 -12.101562 5.390625 -11.1875 C 5.390625 -10.21875 5.535156 -9.28125 5.828125 -8.375 C 6.117188 -7.476562 6.539062 -6.679688 7.09375 -5.984375 C 7.65625 -5.296875 8.335938 -4.738281 9.140625 -4.3125 C 9.953125 -3.894531 10.875 -3.6875 11.90625 -3.6875 Z M 11.46875 -8.28125 L 15.5625 -8.28125 L 22.9375 0 L 18.84375 0 Z M 11.46875 -8.28125 "/></g></g></g><g fill="#00003a" fill-opacity="1"><g transform="translate(94.253114, 351.081452)"><g><path d="M 11.8125 0.15625 C 10.03125 0.15625 8.515625 -0.140625 7.265625 -0.734375 C 6.015625 -1.335938 5.003906 -2.160156 4.234375 -3.203125 C 3.472656 -4.253906 2.910156 -5.445312 2.546875 -6.78125 C 2.191406 -8.113281 2.015625 -9.507812 2.015625 -10.96875 L 2.015625 -22.359375 L 6.359375 -22.359375 L 6.359375 -10.96875 C 6.359375 -10.039062 6.445312 -9.140625 6.625 -8.265625 C 6.8125 -7.398438 7.113281 -6.617188 7.53125 -5.921875 C 7.945312 -5.222656 8.5 -4.675781 9.1875 -4.28125 C 9.882812 -3.882812 10.75 -3.6875 11.78125 -3.6875 C 12.832031 -3.6875 13.707031 -3.890625 14.40625 -4.296875 C 15.113281 -4.703125 15.671875 -5.253906 16.078125 -5.953125 C 16.484375 -6.648438 16.78125 -7.429688 16.96875 -8.296875 C 17.164062 -9.171875 17.265625 -10.0625 17.265625 -10.96875 L 17.265625 -22.359375 L 21.578125 -22.359375 L 21.578125 -10.96875 C 21.578125 -9.425781 21.390625 -7.984375 21.015625 -6.640625 C 20.648438 -5.296875 20.070312 -4.113281 19.28125 -3.09375 C 18.5 -2.082031 17.488281 -1.285156 16.25 -0.703125 C 15.007812 -0.128906 13.53125 0.15625 11.8125 0.15625 Z M 11.8125 0.15625 "/></g></g></g><g fill="#00003a" fill-opacity="1"><g transform="translate(117.878147, 351.081452)"><g><path d="M 2.328125 0 L 2.328125 -22.359375 L 6.671875 -22.359375 L 6.671875 0 Z M 2.328125 0 "/></g></g></g><g fill="#00003a" fill-opacity="1"><g transform="translate(126.887153, 351.081452)"><g><path d="M 6.671875 -14.359375 L 6.671875 0 L 2.328125 0 L 2.328125 -22.359375 L 5.796875 -22.359375 L 17.359375 -7.625 L 17.359375 -22.328125 L 21.703125 -22.328125 L 21.703125 0 L 18.078125 0 Z M 6.671875 -14.359375 "/></g></g></g><g fill="#00003a" fill-opacity="1"><g transform="translate(150.921678, 351.081452)"><g><path d="M 17.859375 -3.8125 L 17.859375 0 L 2.328125 0 L 2.328125 -22.359375 L 17.578125 -22.359375 L 17.578125 -18.546875 L 6.671875 -18.546875 L 6.671875 -13.171875 L 16.09375 -13.171875 L 16.09375 -9.640625 L 6.671875 -9.640625 L 6.671875 -3.8125 Z M 17.859375 -3.8125 "/></g></g></g><g fill="#00003a" fill-opacity="1"><g transform="translate(169.853203, 351.081452)"><g/></g></g><g fill="#00003a" fill-opacity="1"><g transform="translate(177.413216, 351.081452)"><g><path d="M 2.328125 0 L 2.328125 -22.359375 L 17.359375 -22.359375 L 17.359375 -18.546875 L 6.671875 -18.546875 L 6.671875 -12.78125 L 15.5625 -12.78125 L 15.5625 -9.265625 L 6.671875 -9.265625 L 6.671875 0 Z M 2.328125 0 "/></g></g></g><g fill="#00003a" fill-opacity="1"><g transform="translate(195.494238, 351.081452)"><g><path d="M 11.8125 0.15625 C 10.03125 0.15625 8.515625 -0.140625 7.265625 -0.734375 C 6.015625 -1.335938 5.003906 -2.160156 4.234375 -3.203125 C 3.472656 -4.253906 2.910156 -5.445312 2.546875 -6.78125 C 2.191406 -8.113281 2.015625 -9.507812 2.015625 -10.96875 L 2.015625 -22.359375 L 6.359375 -22.359375 L 6.359375 -10.96875 C 6.359375 -10.039062 6.445312 -9.140625 6.625 -8.265625 C 6.8125 -7.398438 7.113281 -6.617188 7.53125 -5.921875 C 7.945312 -5.222656 8.5 -4.675781 9.1875 -4.28125 C 9.882812 -3.882812 10.75 -3.6875 11.78125 -3.6875 C 12.832031 -3.6875 13.707031 -3.890625 14.40625 -4.296875 C 15.113281 -4.703125 15.671875 -5.253906 16.078125 -5.953125 C 16.484375 -6.648438 16.78125 -7.429688 16.96875 -8.296875 C 17.164062 -9.171875 17.265625 -10.0625 17.265625 -10.96875 L 17.265625 -22.359375 L 21.578125 -22.359375 L 21.578125 -10.96875 C 21.578125 -9.425781 21.390625 -7.984375 21.015625 -6.640625 C 20.648438 -5.296875 20.070312 -4.113281 19.28125 -3.09375 C 18.5 -2.082031 17.488281 -1.285156 16.25 -0.703125 C 15.007812 -0.128906 13.53125 0.15625 11.8125 0.15625 Z M 11.8125 0.15625 "/></g></g></g><g fill="#00003a" fill-opacity="1"><g transform="translate(219.119271, 351.081452)"><g><path d="M 19.0625 -18.546875 L 11.90625 -18.546875 L 11.90625 0 L 7.59375 0 L 7.59375 -18.546875 L 0.4375 -18.546875 L 0.4375 -22.359375 L 19.0625 -22.359375 Z M 19.0625 -18.546875 "/></g></g></g><g fill="#00003a" fill-opacity="1"><g transform="translate(238.617794, 351.081452)"><g><path d="M 11.8125 0.15625 C 10.03125 0.15625 8.515625 -0.140625 7.265625 -0.734375 C 6.015625 -1.335938 5.003906 -2.160156 4.234375 -3.203125 C 3.472656 -4.253906 2.910156 -5.445312 2.546875 -6.78125 C 2.191406 -8.113281 2.015625 -9.507812 2.015625 -10.96875 L 2.015625 -22.359375 L 6.359375 -22.359375 L 6.359375 -10.96875 C 6.359375 -10.039062 6.445312 -9.140625 6.625 -8.265625 C 6.8125 -7.398438 7.113281 -6.617188 7.53125 -5.921875 C 7.945312 -5.222656 8.5 -4.675781 9.1875 -4.28125 C 9.882812 -3.882812 10.75 -3.6875 11.78125 -3.6875 C 12.832031 -3.6875 13.707031 -3.890625 14.40625 -4.296875 C 15.113281 -4.703125 15.671875 -5.253906 16.078125 -5.953125 C 16.484375 -6.648438 16.78125 -7.429688 16.96875 -8.296875 C 17.164062 -9.171875 17.265625 -10.0625 17.265625 -10.96875 L 17.265625 -22.359375 L 21.578125 -22.359375 L 21.578125 -10.96875 C 21.578125 -9.425781 21.390625 -7.984375 21.015625 -6.640625 C 20.648438 -5.296875 20.070312 -4.113281 19.28125 -3.09375 C 18.5 -2.082031 17.488281 -1.285156 16.25 -0.703125 C 15.007812 -0.128906 13.53125 0.15625 11.8125 0.15625 Z M 11.8125 0.15625 "/></g></g></g><g fill="#00003a" fill-opacity="1"><g transform="translate(262.242816, 351.081452)"><g><path d="M 2.328125 0 L 2.328125 -22.359375 L 12.21875 -22.359375 C 13.25 -22.359375 14.195312 -22.148438 15.0625 -21.734375 C 15.9375 -21.316406 16.691406 -20.75 17.328125 -20.03125 C 17.972656 -19.320312 18.46875 -18.523438 18.8125 -17.640625 C 19.164062 -16.753906 19.34375 -15.851562 19.34375 -14.9375 C 19.34375 -13.988281 19.175781 -13.078125 18.84375 -12.203125 C 18.519531 -11.335938 18.050781 -10.578125 17.4375 -9.921875 C 16.832031 -9.273438 16.125 -8.769531 15.3125 -8.40625 L 20.40625 0 L 15.625 0 L 11.03125 -7.5 L 6.671875 -7.5 L 6.671875 0 Z M 6.671875 -11.3125 L 12.125 -11.3125 C 12.675781 -11.3125 13.160156 -11.472656 13.578125 -11.796875 C 13.992188 -12.117188 14.328125 -12.550781 14.578125 -13.09375 C 14.835938 -13.644531 14.96875 -14.257812 14.96875 -14.9375 C 14.96875 -15.644531 14.816406 -16.265625 14.515625 -16.796875 C 14.222656 -17.335938 13.847656 -17.765625 13.390625 -18.078125 C 12.941406 -18.390625 12.457031 -18.546875 11.9375 -18.546875 L 6.671875 -18.546875 Z M 6.671875 -11.3125 "/></g></g></g><g fill="#00003a" fill-opacity="1"><g transform="translate(283.190355, 351.081452)"><g><path d="M 17.859375 -3.8125 L 17.859375 0 L 2.328125 0 L 2.328125 -22.359375 L 17.578125 -22.359375 L 17.578125 -18.546875 L 6.671875 -18.546875 L 6.671875 -13.171875 L 16.09375 -13.171875 L 16.09375 -9.640625 L 6.671875 -9.640625 L 6.671875 -3.8125 Z M 17.859375 -3.8125 "/></g></g></g><g fill="#00003a" fill-opacity="1"><g transform="translate(302.12188, 351.081452)"><g><path d="M 15.65625 -16.5 C 15.507812 -16.644531 15.238281 -16.84375 14.84375 -17.09375 C 14.457031 -17.351562 13.984375 -17.597656 13.421875 -17.828125 C 12.867188 -18.054688 12.265625 -18.257812 11.609375 -18.4375 C 10.960938 -18.625 10.304688 -18.71875 9.640625 -18.71875 C 8.460938 -18.71875 7.570312 -18.492188 6.96875 -18.046875 C 6.375 -17.609375 6.078125 -16.988281 6.078125 -16.1875 C 6.078125 -15.582031 6.265625 -15.097656 6.640625 -14.734375 C 7.023438 -14.378906 7.59375 -14.078125 8.34375 -13.828125 C 9.101562 -13.578125 10.050781 -13.304688 11.1875 -13.015625 C 12.65625 -12.648438 13.925781 -12.210938 15 -11.703125 C 16.082031 -11.191406 16.910156 -10.519531 17.484375 -9.6875 C 18.066406 -8.851562 18.359375 -7.753906 18.359375 -6.390625 C 18.359375 -5.191406 18.140625 -4.164062 17.703125 -3.3125 C 17.265625 -2.46875 16.65625 -1.78125 15.875 -1.25 C 15.09375 -0.726562 14.207031 -0.347656 13.21875 -0.109375 C 12.238281 0.128906 11.191406 0.25 10.078125 0.25 C 8.960938 0.25 7.847656 0.132812 6.734375 -0.09375 C 5.628906 -0.320312 4.5625 -0.648438 3.53125 -1.078125 C 2.5 -1.515625 1.550781 -2.035156 0.6875 -2.640625 L 2.609375 -6.390625 C 2.796875 -6.203125 3.128906 -5.957031 3.609375 -5.65625 C 4.097656 -5.351562 4.6875 -5.046875 5.375 -4.734375 C 6.070312 -4.429688 6.832031 -4.175781 7.65625 -3.96875 C 8.476562 -3.757812 9.304688 -3.65625 10.140625 -3.65625 C 11.316406 -3.65625 12.207031 -3.851562 12.8125 -4.25 C 13.425781 -4.644531 13.734375 -5.210938 13.734375 -5.953125 C 13.734375 -6.628906 13.488281 -7.15625 13 -7.53125 C 12.519531 -7.90625 11.847656 -8.234375 10.984375 -8.515625 C 10.128906 -8.804688 9.113281 -9.117188 7.9375 -9.453125 C 6.53125 -9.847656 5.351562 -10.289062 4.40625 -10.78125 C 3.46875 -11.28125 2.765625 -11.90625 2.296875 -12.65625 C 1.835938 -13.414062 1.609375 -14.363281 1.609375 -15.5 C 1.609375 -17.03125 1.96875 -18.316406 2.6875 -19.359375 C 3.414062 -20.398438 4.398438 -21.1875 5.640625 -21.71875 C 6.878906 -22.25 8.253906 -22.515625 9.765625 -22.515625 C 10.816406 -22.515625 11.804688 -22.398438 12.734375 -22.171875 C 13.671875 -21.941406 14.546875 -21.640625 15.359375 -21.265625 C 16.179688 -20.890625 16.921875 -20.476562 17.578125 -20.03125 Z M 15.65625 -16.5 "/></g></g></g></svg>